# xmcd
#
# Track frame offsets:
#	150
#	18690
#	31385
#	51482
#	64178
#	83179
#	102919
#	118022
#	135664
#	158929
#	177567
#	195534
#	206859
#	237157
#	275106
#
# Disc length: 3820 seconds
#
# Revision: 1
# Processed by: cddbd v1.5.2PL0 Copyright (c) Steve Scherf et al.
# Submitted via: audiograbber 1.83.01
#
DISCID=e40eea0f
DTITLE=Dave Van Ronk - On Air
DYEAR=2007
DGENRE=Blues
TTITLE0=Down South Blues
TTITLE1=Gold Old Waggon
TTITLE2=Sportin' Life Blues
TTITLE3=John Hurt
TTITLE4=Spike Driver's Moan
TTITLE5=Rock Me Mama
TTITLE6=He Was A Friend Of Mine
TTITLE7=Green Rocky Road
TTITLE8=Mamie's Blues
TTITLE9=Stack-O-Lee
TTITLE10=Goin' Down Slow
TTITLE11=Kansas City Blues
TTITLE12=God Bless The Child
TTITLE13=House Of The Rising Sun
TTITLE14=Swingin' On A Star
EXTD=
EXTT0=
EXTT1=
EXTT2=
EXTT3=
EXTT4=
EXTT5=
EXTT6=
EXTT7=
EXTT8=
EXTT9=
EXTT10=
EXTT11=
EXTT12=
EXTT13=
EXTT14=
PLAYORDER=
